#include "keymap.sfz"

<global>
loop_mode=one_shot

<group>
key=$SNARE_CENTER_KEY

<region>
sample=samples/overheads/snare_supr64_a_01.wav
hivel=8
seq_length=2

<region>
sample=samples/overheads/snare_supr64_b_01.wav
hivel=8
seq_length=2
seq_position=2

<region>
sample=samples/overheads/snare_supr64_a_02.wav
lovel=8
hivel=16
seq_length=2

<region>
sample=samples/overheads/snare_supr64_b_02.wav
lovel=8
hivel=16
seq_length=2
seq_position=2

<region>
sample=samples/overheads/snare_supr64_a_03.wav
lovel=16
hivel=25
seq_length=2

<region>
sample=samples/overheads/snare_supr64_b_03.wav
lovel=16
hivel=25
seq_length=2
seq_position=2

<region>
sample=samples/overheads/snare_supr64_a_04.wav
lovel=25
hivel=33
seq_length=2

<region>
sample=samples/overheads/snare_supr64_b_04.wav
lovel=25
hivel=33
seq_length=2
seq_position=2

<region>
sample=samples/overheads/snare_supr64_a_05.wav
lovel=33
hivel=42
seq_length=2

<region>
sample=samples/overheads/snare_supr64_b_05.wav
lovel=33
hivel=42
seq_length=2
seq_position=2

<region>
sample=samples/overheads/snare_supr64_a_06.wav<group>
key=$KICK_DAMP_KEY

<region>
sample=samples/overheads/snare_supr64_a_07.wav
lovel=50
hivel=59
seq_length=2

<region>
sample=samples/overheads/snare_supr64_b_07.wav
lovel=50
hivel=59
seq_length=2
seq_position=2

<region>
sample=samples/overheads/snare_supr64_a_08.wav
lovel=59
hivel=67
seq_length=2

<region>
sample=samples/overheads/snare_supr64_b_08.wav
lovel=59
hivel=67
seq_length=2
seq_position=2

<region>
sample=samples/overheads/snare_supr64_a_09.wav
lovel=67
hivel=76
seq_length=2

<region>
sample=samples/overheads/snare_supr64_b_09.wav
lovel=67
hivel=76
seq_length=2
seq_position=2

<region>
sample=samples/overheads/snare_supr64_a_10.wav
lovel=76
hivel=84
seq_length=2

<region>
sample=samples/overheads/snare_supr64_b_10.wav
lovel=76
hivel=84
seq_length=2
seq_position=2

<region>
sample=samples/overheads/snare_supr64_a_11.wav
lovel=84
hivel=93
seq_length=2

<region>
sample=samples/overheads/snare_supr64_b_11.wav
lovel=84
hivel=93
seq_length=2
seq_position=2

<region>
sample=samples/overheads/snare_supr64_a_12.wav
lovel=93
hivel=101
seq_length=2

<region>
sample=samples/overheads/snare_supr64_b_12.wav
lovel=93
hivel=101
seq_length=2
seq_position=2

<region>
sample=samples/overheads/snare_supr64_a_13.wav
lovel=101
hivel=110
seq_length=2

<region>
sample=samples/overheads/snare_supr64_b_13.wav
lovel=101
hivel=110
seq_length=2
seq_position=2

<region>
sample=samples/overheads/snare_supr64_a_14.wav
lovel=110
hivel=118
seq_length=2

<region>
sample=samples/overheads/snare_supr64_b_14.wav
lovel=110
hivel=118
seq_length=2
seq_position=2

<region>
sample=samples/overheads/snare_supr64_a_15.wav
lovel=118
seq_length=2

<region>
sample=samples/overheads/snare_supr64_b_15.wav
lovel=118
seq_length=2
seq_position=2


<group>
key=$SNARE_EDGE_KEY

<region>
sample=samples/overheads/snare_supr64_edg_a_01.wav
hivel=9
seq_length=2

<region>
sample=samples/overheads/snare_supr64_edg_b_01.wav
hivel=9
seq_length=2
seq_position=2

<region>
sample=samples/overheads/snare_supr64_edg_a_02.wav
lovel=9
hivel=18
seq_length=2

<region>
sample=samples/overheads/snare_supr64_edg_b_02.wav
lovel=9
hivel=18
seq_length=2
seq_position=2

<region>
sample=samples/overheads/snare_supr64_edg_a_03.wav
lovel=18
hivel=27
seq_length=2

<region>
sample=samples/overheads/snare_supr64_edg_b_03.wav
lovel=18
hivel=27
seq_length=2
seq_position=2

<region>
sample=samples/overheads/snare_supr64_edg_a_04.wav
lovel=27
hivel=36
seq_length=2

<region>
sample=samples/overheads/snare_supr64_edg_b_04.wav
lovel=27
hivel=36
seq_length=2
seq_position=2

<region>
sample=samples/overheads/snare_supr64_edg_a_05.wav
lovel=36
hivel=45
seq_length=2

<region>
sample=samples/overheads/snare_supr64_edg_b_05.wav
lovel=36
hivel=45
seq_length=2
seq_position=2

<region>
sample=samples/overheads/snare_supr64_edg_a_06.wav
lovel=45
hivel=54
seq_length=2

<region>
sample=samples/overheads/snare_supr64_edg_b_06.wav
lovel=45
hivel=54
seq_length=2
seq_position=2

<region>
sample=samples/overheads/snare_supr64_edg_a_07.wav
lovel=54
hivel=63
seq_length=2

<region>
sample=samples/overheads/snare_supr64_edg_b_07.wav
lovel=54
hivel=63
seq_length=2
seq_position=2

<region>
sample=samples/overheads/snare_supr64_edg_a_08.wav
lovel=63
hivel=72
seq_length=2

<region>
sample=samples/overheads/snare_supr64_edg_b_08.wav
lovel=63
hivel=72
seq_length=2
seq_position=2

<region>
sample=samples/overheads/snare_supr64_edg_a_09.wav
lovel=72
hivel=81
seq_length=2

<region>
sample=samples/overheads/snare_supr64_edg_b_09.wav
lovel=72
hivel=81
seq_length=2
seq_position=2

<region>
sample=samples/overheads/snare_supr64_edg_a_10.wav
lovel=81
hivel=90
seq_length=2

<region>
sample=samples/overheads/snare_supr64_edg_b_10.wav
lovel=81
hivel=90
seq_length=2
seq_position=2

<region>
sample=samples/overheads/snare_supr64_edg_a_11.wav
lovel=90
hivel=99
seq_length=2

<region>
sample=samples/overheads/snare_supr64_edg_b_11.wav
lovel=90
hivel=99
seq_length=2
seq_position=2

<region>
sample=samples/overheads/snare_supr64_edg_a_12.wav
lovel=99
hivel=108
seq_length=2

<region>
sample=samples/overheads/snare_supr64_edg_b_12.wav
lovel=99
hivel=108
seq_length=2
seq_position=2

<region>
sample=samples/overheads/snare_supr64_edg_a_13.wav
lovel=108
hivel=117
seq_length=2

<region>
sample=samples/overheads/snare_supr64_edg_b_13.wav
lovel=108
hivel=117
seq_length=2
seq_position=2

<region>
sample=samples/overheads/snare_supr64_edg_a_14.wav
lovel=117
seq_length=2

<region>
sample=samples/overheads/snare_supr64_edg_b_14.wav
lovel=117
seq_length=2
seq_position=2


<group>
key=$SNARE_RIM_KEY

<region>
sample=samples/overheads/snare_supr64_rim_a_01.wav
hivel=10
seq_length=2

<region>
sample=samples/overheads/snare_supr64_rim_b_01.wav
hivel=10
seq_length=2
seq_position=2

<region>
sample=samples/overheads/snare_supr64_rim_a_02.wav
lovel=10
hivel=21
seq_length=2

<region>
sample=samples/overheads/snare_supr64_rim_b_02.wav
lovel=10
hivel=21
seq_length=2
seq_position=2

<region>
sample=samples/overheads/snare_supr64_rim_a_03.wav
lovel=21
hivel=31
seq_length=2

<region>
sample=samples/overheads/snare_supr64_rim_b_03.wav
lovel=21
hivel=31
seq_length=2
seq_position=2

<region>
sample=samples/overheads/snare_supr64_rim_a_04.wav
lovel=31
hivel=42
seq_length=2

<region>
sample=samples/overheads/snare_supr64_rim_b_04.wav
lovel=31
hivel=42
seq_length=2
seq_position=2

<region>
sample=samples/overheads/snare_supr64_rim_a_05.wav
lovel=42
hivel=52
seq_length=2

<region>
sample=samples/overheads/snare_supr64_rim_b_05.wav
lovel=42
hivel=52
seq_length=2
seq_position=2

<region>
sample=samples/overheads/snare_supr64_rim_a_06.wav
lovel=52
hivel=63
seq_length=2

<region>
sample=samples/overheads/snare_supr64_rim_b_06.wav
lovel=52
hivel=63
seq_length=2
seq_position=2

<region>
sample=samples/overheads/snare_supr64_rim_a_07.wav
lovel=63
hivel=74
seq_length=2

<region>
sample=samples/overheads/snare_supr64_rim_b_07.wav
lovel=63
hivel=74
seq_length=2
seq_position=2

<region>
sample=samples/overheads/snare_supr64_rim_a_08.wav
lovel=74
hivel=84
seq_length=2

<region>
sample=samples/overheads/snare_supr64_rim_b_08.wav
lovel=74
hivel=84
seq_length=2
seq_position=2

<region>
sample=samples/overheads/snare_supr64_rim_a_09.wav
lovel=84
hivel=95
seq_length=2

<region>
sample=samples/overheads/snare_supr64_rim_b_09.wav
lovel=84
hivel=95
seq_length=2
seq_position=2

<region>
sample=samples/overheads/snare_supr64_rim_a_10.wav
lovel=95
hivel=105
seq_length=2

<region>
sample=samples/overheads/snare_supr64_rim_b_10.wav
lovel=95
hivel=105
seq_length=2
seq_position=2

<region>
sample=samples/overheads/snare_supr64_rim_a_11.wav
lovel=105
hivel=116
seq_length=2

<region>
sample=samples/overheads/snare_supr64_rim_b_11.wav
lovel=105
hivel=116
seq_length=2
seq_position=2

<region>
sample=samples/overheads/snare_supr64_rim_a_12.wav
lovel=116
seq_length=2

<region>
sample=samples/overheads/snare_supr64_rim_b_12.wav
lovel=116
seq_length=2
seq_position=2
